<?xml version="1.0" encoding="utf-8"?>
<!-- Generator: Adobe Illustrator 17.0.0, SVG Export Plug-In . SVG Version: 6.00 Build 0)  -->
<!DOCTYPE svg PUBLIC "-//W3C//DTD SVG 1.1//EN" "http://www.w3.org/Graphics/SVG/1.1/DTD/svg11.dtd">
<svg version="1.1" id="Capa_1" xmlns="http://www.w3.org/2000/svg" xmlns:xlink="http://www.w3.org/1999/xlink" x="0px" y="0px"
	 viewBox="0.785 62.47 1012.998 1017.53"
	 enable-background="new 0.785 62.47 1012.998 1017.53" xml:space="preserve">
<g>
	<g>
		<path fill="#333333" d="M853.54,669.022c-22.11-23.022-48.779-35.331-77.044-35.331c-28.037,0-54.934,12.081-77.956,35.103
			l-72.029,71.802c-5.926-3.191-11.853-6.154-17.552-9.118c-8.206-4.103-15.956-7.978-22.566-12.081
			c-67.471-42.853-128.787-98.699-187.596-170.956c-28.493-36.015-47.64-66.331-61.544-97.103
			c18.691-17.096,36.015-34.875,52.882-51.971c6.382-6.382,12.765-12.993,19.147-19.375c47.868-47.868,47.868-109.868,0-157.735
			l-62.228-62.228c-7.066-7.066-14.36-14.36-21.199-21.654c-13.676-14.132-28.037-28.721-42.853-42.397
			c-22.11-21.882-48.552-33.507-76.36-33.507s-54.706,11.625-77.5,33.507c-0.228,0.228-0.228,0.228-0.456,0.456l-77.5,78.184
			C22.01,203.793,5.37,239.352,1.723,280.61C-3.747,347.168,15.856,409.169,30.9,449.742
			c36.927,99.61,92.088,191.927,174.375,290.853c99.838,119.213,219.963,213.353,357.184,279.684
			c52.427,24.846,122.405,54.25,200.588,59.265c4.787,0.228,9.801,0.456,14.36,0.456c52.654,0,96.875-18.919,131.522-56.529
			c0.228-0.456,0.684-0.684,0.912-1.14c11.853-14.36,25.529-27.353,39.89-41.257c9.801-9.346,19.831-19.147,29.632-29.404
			c22.566-23.478,34.419-50.831,34.419-78.868c0-28.265-12.081-55.39-35.103-78.184L853.54,669.022z M935.143,909.044
			C934.915,909.044,934.915,909.272,935.143,909.044c-8.89,9.574-18.007,18.235-27.809,27.809
			c-14.816,14.132-29.86,28.949-43.993,45.588c-23.022,24.618-50.147,36.243-85.706,36.243c-3.419,0-7.066,0-10.485-0.228
			c-67.699-4.331-130.61-30.772-177.794-53.338c-129.015-62.456-242.302-151.125-336.441-263.5
			c-77.728-93.684-129.699-180.302-164.118-273.302c-21.199-56.757-28.949-100.978-25.529-142.691
			c2.279-26.669,12.537-48.779,31.456-67.699l77.728-77.728c11.169-10.485,23.022-16.184,34.647-16.184
			c14.36,0,25.985,8.662,33.279,15.956c0.228,0.228,0.456,0.456,0.684,0.684c13.904,12.993,27.125,26.441,41.029,40.801
			c7.066,7.294,14.36,14.588,21.654,22.11l62.228,62.228c24.162,24.162,24.162,46.5,0,70.662
			c-6.61,6.61-12.993,13.221-19.603,19.603c-19.147,19.603-37.382,37.838-57.213,55.618c-0.456,0.456-0.912,0.684-1.14,1.14
			c-19.603,19.603-15.956,38.75-11.853,51.743c0.228,0.684,0.456,1.368,0.684,2.051c16.184,39.206,38.978,76.132,73.625,120.125
			l0.228,0.228c62.912,77.5,129.243,137.905,202.412,184.177c9.346,5.927,18.919,10.713,28.037,15.272
			c8.206,4.103,15.956,7.978,22.566,12.081c0.912,0.456,1.823,1.14,2.735,1.596c7.75,3.875,15.044,5.699,22.566,5.699
			c18.919,0,30.772-11.853,34.647-15.728l77.956-77.956c7.75-7.75,20.059-17.096,34.419-17.096c14.132,0,25.757,8.89,32.824,16.64
			c0.228,0.228,0.228,0.228,0.456,0.456l125.596,125.596C958.393,860.948,958.393,884.882,935.143,909.044z"/>
	</g>
</g>
</svg>
