<svg version="1.1" id="Layer_1" xmlns="http://www.w3.org/2000/svg" xmlns:xlink="http://www.w3.org/1999/xlink" x="0px" y="0px"
	 viewBox="0 0 20 20" style="enable-background:new 0 0 20 20;" xml:space="preserve">
<style type="text/css">
	.st0{fill:#ffffff;}
</style>
<g>
	<path class="st0" d="M16.2,0.8v4.7C14.9,5.8,14,6.9,14,8.3s1,2.6,2.3,2.9v8c0,0.4,0.3,0.8,0.8,0.8s0.8-0.3,0.8-0.8v-8
		C19,10.9,20,9.7,20,8.3s-1-2.6-2.3-2.9V0.8C17.7,0.3,17.4,0,17,0C16.6,0,16.2,0.3,16.2,0.8z M18.5,8.3c0,0.8-0.7,1.5-1.5,1.5
		s-1.5-0.7-1.5-1.5s0.7-1.5,1.5-1.5S18.5,7.5,18.5,8.3z"/>
	<path class="st0" d="M10.8,19.3v-1.6c1.3-0.3,2.3-1.5,2.3-2.9s-1-2.6-2.3-2.9V0.8C10.8,0.3,10.4,0,10,0C9.6,0,9.3,0.3,9.3,0.8v11.1
		C8,12.2,7,13.3,7,14.7s1,2.6,2.3,2.9v1.6c0,0.4,0.3,0.8,0.8,0.8S10.8,19.7,10.8,19.3z M8.5,14.7c0-0.8,0.7-1.5,1.5-1.5
		s1.5,0.7,1.5,1.5s-0.7,1.5-1.5,1.5S8.5,15.6,8.5,14.7z"/>
	<path class="st0" d="M3.8,19.3V8.7C5.1,8.4,6,7.2,6,5.8c0-1.4-1-2.6-2.3-2.9V0.8C3.8,0.3,3.4,0,3,0S2.3,0.3,2.3,0.8v2.2
		C1,3.2,0,4.4,0,5.8c0,1.4,1,2.6,2.3,2.9v10.5C2.3,19.7,2.6,20,3,20S3.8,19.7,3.8,19.3z M1.5,5.8C1.5,5,2.2,4.3,3,4.3S4.5,5,4.5,5.8
		c0,0.8-0.7,1.5-1.5,1.5S1.5,6.6,1.5,5.8z"/>
</g>
</svg>
