<?xml version="1.0" encoding="utf-8"?>
<!-- Generator: Adobe Illustrator 24.1.0, SVG Export Plug-In . SVG Version: 6.00 Build 0)  -->
<svg version="1.1" id="Capa_1" xmlns="http://www.w3.org/2000/svg" xmlns:xlink="http://www.w3.org/1999/xlink" x="0px" y="0px"
	 viewBox="0 0 17 34" style="enable-background:new 0 0 17 34;" xml:space="preserve">
<style type="text/css">
	.st0{fill:#333333;}
</style>
<path class="st0" d="M15.8,33.8c0.3,0.3,0.7,0.3,1,0c0.3-0.3,0.3-0.7,0-1L1.7,17L16.8,1.3c0.3-0.3,0.3-0.8,0-1c-0.3-0.3-0.7-0.3-1,0
	c0,0,0,0,0,0L0.2,16.5c-0.3,0.3-0.3,0.8,0,1L15.8,33.8z"/>
<path class="st0" d="M16.3,0C16.7,0,17,0.3,17,0.7c0,0.2-0.1,0.4-0.2,0.5L1.7,17l15.1,15.7c0.3,0.3,0.3,0.8,0,1
	c-0.3,0.3-0.7,0.3-1,0L0.2,17.5c-0.3-0.3-0.3-0.8,0-1L15.8,0.2C15.9,0.1,16.1,0,16.3,0z"/>
</svg>
