<?xml version="1.0" encoding="utf-8"?>
<!-- Generator: Adobe Illustrator 24.1.0, SVG Export Plug-In . SVG Version: 6.00 Build 0)  -->
<svg version="1.1" id="Layer_1" xmlns="http://www.w3.org/2000/svg" xmlns:xlink="http://www.w3.org/1999/xlink" x="0px" y="0px"
	 viewBox="0 0 645.8 634.1" style="enable-background:new 0 0 645.8 634.1;" xml:space="preserve">
<style type="text/css">
	.st0{fill:#FFFFFF;}
</style>
<path class="st0" d="M0,77.6c-0.2-18.7,6.5-37,19-51.1c14-15.8,34.1-25,55.1-25.2L175,0c38.3-0.5,70.7,27.7,75.5,65.4
	c2.8,22.3,7.7,44.3,14.5,65.6c8.6,26.7,1.8,55.6-17.5,75.4l-40.4,41.4c43.8,77.6,110,142.1,188.7,183.8l40.4-41.4
	c19.3-19.9,48-27.3,74.9-19.5c21.5,6.2,43.6,10.5,66,12.7c37.9,3.8,66.9,35.5,67.4,73.7l1.3,100.8c0.3,21-8.4,41.4-23.8,55.7
	c-15.4,14.4-36.4,21.8-57.4,20.2c-72.5-5.7-142.5-23.9-208.3-54.3c-64-29.5-122.1-69.4-172.8-118.7S91.4,354.5,60.2,291.3
	C28.2,226.4,8.1,156.7,0.5,84.5C0.2,82.2,0,79.9,0,77.6z M218.6,153.9c0-2.5-0.5-5.1-1.2-7.6c-7.7-24.2-13.4-49.3-16.5-74.6
	c-1.6-12.6-12.5-21.9-25.3-21.8L74.9,51.3c-7.1,0.1-13.7,3.1-18.4,8.4c-4.8,5.4-7,12.4-6.2,19.6c28.6,271.1,246.6,483.5,518.4,504.9
	c7.2,0.6,14.2-1.9,19.4-6.8c5.2-4.9,8-11.5,8-18.6l-1.3-101c-0.2-12.8-9.8-23.5-22.4-24.7c-25.3-2.6-50.6-7.4-75-14.5
	c-9.1-2.7-18.7-0.2-25.2,6.4l-65.6,67.4l-16.2-7.8c-101-48.5-184.8-130.1-236-229.7l-8.2-16l65.7-67.4
	C216.3,166.9,218.7,160.4,218.6,153.9z"/>
</svg>
