<svg version="1.1" id="Layer_1" xmlns="http://www.w3.org/2000/svg" x="0" y="0" viewBox="0 0 525.08 129.03" xml:space="preserve"><style>.st4{fill:#fff}</style><path d="M56.62 129.03c31.15 0 56.57-25.42 56.57-56.62 0-31.15-25.42-56.57-56.57-56.57C25.43 15.84 0 41.26 0 72.41c0 31.2 25.43 56.62 56.62 56.62z" fill-rule="evenodd" clip-rule="evenodd" fill="#f19521"/><path d="M15.83 111.84C7.48 103.22 1.85 91.95.32 79.46c4.13-.72 8.46-2.13 15.11-10.41l27.28-48.53c-6.74 29.55-28.46 62.51-26.88 91.32z" fill-rule="evenodd" clip-rule="evenodd" fill="#fff"/><path d="M75.07.4c-7.86 20.37-52.91 126.33.33 107.52-57.87 26.3-45.13-11.73-37.02-35.09C52.19 34.96 63.46 26.69 75.07.4z" fill-rule="evenodd" clip-rule="evenodd" fill="#fff" stroke="#231f20" stroke-width="2"/><path d="M11.31 89.05c23.25-6.98 141.7-18.54 101.14-52.38 49.25 40.23 9.5 45.63-15.04 48.74-40.07 4.41-57.38 2.44-86.1 3.64z" fill-rule="evenodd" clip-rule="evenodd" fill="none" stroke="#231f20" stroke-width="2"/><path class="st4" d="M176.88 68.89h-6.79V23.4h-19.08v-5.42h44.65v5.42h-18.78v45.49zM204.97 43.55c0-4.92 1.55-7.87 4.66-8.84 3.1-.97 6.97-1.46 11.6-1.46 5.65 0 10.01.69 13.09 2.06s4.62 4.85 4.62 10.43v23.15h-5.72l.31-3.66c-1.73 1.93-3.79 3.12-6.18 3.55-2.39.43-4.94.65-7.63.65-5.04 0-8.99-.65-11.87-1.95-2.88-1.3-4.31-4.39-4.31-9.27 0-4.73 1.51-7.71 4.54-8.93 3.03-1.22 6.86-1.83 11.49-1.83.71 0 1.44.01 2.18.04.74.03 1.46.06 2.18.11 1.02.1 2.01.23 2.98.38.97.15 1.91.38 2.82.69.66.2 1.22.52 1.68.95.46.43.86.93 1.22 1.49v-4.27c0-4.38-.7-7.1-2.1-8.17-1.4-1.07-4.62-1.6-9.66-1.6-.51 0-1.07.01-1.68.04-.61.03-1.22.06-1.83.11-.81.05-1.62.18-2.4.38-.79.2-1.44.48-1.95.84-.61.36-1.03.8-1.26 1.34-.23.53-.37 1.11-.42 1.72-.05.15-.08.32-.08.5v1c0 .18.03.37.08.57h-6.36zm7.1 20.19c1.48.99 3.89 1.49 7.25 1.49h1.87c.64 0 1.28-.02 1.95-.08 2.44-.1 4.69-.57 6.75-1.41 2.06-.84 3.09-2.58 3.09-5.23 0-3.21-1.11-5.16-3.32-5.88-2.21-.71-4.9-1.07-8.05-1.07h-3.09c-.59 0-1.18.03-1.79.08-1.02.1-2 .27-2.94.5-.94.23-1.74.6-2.4 1.11-.46.31-.8.71-1.03 1.22-.23.51-.37 1.04-.42 1.6-.05.26-.08.51-.08.76v.76c-.01 3.11.73 5.16 2.21 6.15zM275.03 37.52h-15.8v21.91c0 2.04.36 3.47 1.07 4.31.71.84 2.29 1.26 4.73 1.26 2.75 0 4.4-.58 4.96-1.76.56-1.17.84-2.7.84-4.58V56.3h5.8c0 3.71-.64 6.82-1.91 9.31s-4.53 3.74-9.77 3.74c-4.58 0-7.72-.71-9.43-2.14-1.71-1.42-2.56-4.02-2.56-7.79v-21.9h-5.34v-4.27h5.34v-8.63h6.26v8.63h15.8v4.27zM302.28 68.89h-8.55l-13.66-35.64h6.26l11.75 31.6 11.22-31.6h6.72l-13.74 35.64zM324.72 43.55c0-4.92 1.55-7.87 4.66-8.84s6.97-1.46 11.6-1.46c5.65 0 10.01.69 13.09 2.06s4.62 4.85 4.62 10.43v23.15h-5.72l.31-3.66c-1.73 1.93-3.79 3.12-6.18 3.55-2.39.43-4.94.65-7.63.65-5.04 0-8.99-.65-11.87-1.95-2.88-1.3-4.31-4.39-4.31-9.27 0-4.73 1.51-7.71 4.54-8.93 3.03-1.22 6.86-1.83 11.49-1.83.71 0 1.44.01 2.17.04.74.03 1.46.06 2.18.11 1.02.1 2.01.23 2.98.38.97.15 1.91.38 2.82.69.66.2 1.22.52 1.68.95.46.43.87.93 1.22 1.49v-4.27c0-4.38-.7-7.1-2.1-8.17-1.4-1.07-4.62-1.6-9.66-1.6-.51 0-1.07.01-1.68.04-.61.03-1.22.06-1.83.11-.81.05-1.62.18-2.4.38-.79.2-1.44.48-1.95.84-.61.36-1.03.8-1.26 1.34-.23.53-.37 1.11-.42 1.72-.05.15-.08.32-.08.5v1c0 .18.02.37.08.57h-6.35zm7.1 20.19c1.48.99 3.89 1.49 7.25 1.49h1.87c.64 0 1.29-.02 1.95-.08 2.44-.1 4.69-.57 6.75-1.41 2.06-.84 3.09-2.58 3.09-5.23 0-3.21-1.11-5.16-3.32-5.88-2.21-.71-4.9-1.07-8.05-1.07h-3.09c-.59 0-1.18.03-1.79.08-1.02.1-2 .27-2.94.5-.94.23-1.74.6-2.4 1.11-.46.31-.8.71-1.03 1.22-.23.51-.37 1.04-.42 1.6-.05.26-.08.51-.08.76v.76c0 3.11.73 5.16 2.21 6.15zM407.08 31.95c-.25-3.77-1.07-6.27-2.44-7.52-1.37-1.25-4.33-1.87-8.85-1.87h-3.21c-.76 0-1.63.01-2.59.04-.97.03-1.96.06-2.98.11-1.27.1-2.49.26-3.66.46s-2.11.51-2.82.92c-.92.51-1.6 1.2-2.06 2.06-.46.87-.76 1.76-.92 2.67-.05.41-.09.81-.11 1.22-.03.41-.04.79-.04 1.15 0 2.8.52 4.92 1.56 6.37 1.04 1.45 3.42 2.28 7.14 2.48l4.2.15c1.37.05 2.72.08 4.05.08 5.6.1 10.38.79 14.35 2.07 3.97 1.28 5.95 5.18 5.95 11.71 0 3.88-.66 7.21-1.98 9.99-1.32 2.78-4.63 4.4-9.92 4.86a213.858 213.858 0 0 1-11.14.31c-6.11 0-11.14-.68-15.11-2.03-3.97-1.35-5.95-5.25-5.95-11.68v-.61c0-.2.02-.41.08-.61 0-.2.01-.41.04-.61.02-.2.04-.41.04-.61h6.33c0 4.65.74 7.68 2.21 9.11 1.47 1.43 4.91 2.14 10.3 2.14h5.57c4.83 0 8.19-.52 10.08-1.57 1.88-1.05 2.82-3.74 2.82-8.08 0-3.42-.57-5.69-1.72-6.81-1.14-1.12-3.63-1.76-7.44-1.92-.92-.05-1.81-.09-2.67-.11-.87-.03-1.73-.04-2.6-.04-6.16-.2-11.49-.94-15.99-2.21s-6.75-5.29-6.75-12.06c0-6.16 1.81-10 5.42-11.52 3.61-1.53 8.47-2.29 14.58-2.29h1.6c6.11 0 11.14.62 15.11 1.87 3.97 1.25 5.95 5.13 5.95 11.64v.76h-6.43zM428.64 36.83c2.06-2.8 6.86-4.2 14.39-4.2 7.83 0 12.92 1.18 15.26 3.55s3.51 6.91 3.51 13.62c0 5.85-.71 10.58-2.14 14.2-1.42 3.61-6.36 5.42-14.81 5.42-7.33 0-12.38-.99-15.15-2.98s-4.16-6.31-4.16-12.98V50.1c.01-6.04 1.04-10.47 3.1-13.27zm3.24 16.18v1.64c0 .59.03 1.16.08 1.72.1 1.48.32 2.88.65 4.2.33 1.32.9 2.34 1.72 3.05.66.56 1.51.93 2.56 1.11 1.04.18 2.12.29 3.24.34h3.67c3.56 0 6.3-.43 8.2-1.3 1.91-.86 2.99-2.98 3.24-6.33.05-.71.09-1.4.11-2.06.03-.66.04-1.35.04-2.06.05-.66.08-1.34.08-2.02v-2.02c0-4.38-.46-7.5-1.37-9.39-.92-1.88-3.89-2.82-8.93-2.82h-1.37c-5.29 0-8.6.71-9.92 2.14-1.32 1.43-1.98 4.66-1.98 9.69V53.01zM493.02 37.6h-10.84v31.29H476V37.6h-6.26v-4.35H476v-5.27c0-4.12 1.08-6.92 3.24-8.4 2.16-1.48 5.46-2.21 9.88-2.21.31 0 .62.01.95.04.33.03.67.04 1.03.04.31 0 .62.01.95.04.33.03.65.04.95.04v4.43c-.36-.05-.72-.09-1.11-.11-.38-.02-.75-.04-1.11-.04h-2.29c-2.39 0-4.04.47-4.96 1.41-.92.94-1.37 2.38-1.37 4.31v5.72H493v4.35zM523.47 37.52h-15.8v21.91c0 2.04.36 3.47 1.07 4.31.71.84 2.29 1.26 4.73 1.26 2.75 0 4.4-.58 4.96-1.76.56-1.17.84-2.7.84-4.58V56.3h5.8c0 3.71-.64 6.82-1.91 9.31s-4.53 3.74-9.77 3.74c-4.58 0-7.72-.71-9.43-2.14-1.71-1.42-2.56-4.02-2.56-7.79v-21.9h-5.34v-4.27h5.34v-8.63h6.26v8.63h15.8v4.27z"/><g><path class="st4" d="M175.33 105.09h-2.42c0-1.15-.23-1.87-.7-2.14s-1.67-.42-3.6-.42c-1.8 0-2.94.15-3.42.44-.48.29-.73 1-.73 2.12 0 1.69.81 2.58 2.44 2.66l1.95.1 2.47.12c3 .15 4.49 1.72 4.49 4.7 0 1.86-.5 3.13-1.49 3.82s-2.81 1.04-5.45 1.04c-2.71 0-4.57-.33-5.59-.99-1.02-.66-1.53-1.86-1.53-3.61l.02-.9h2.51l.02.78c0 1.08.28 1.81.83 2.17s1.64.54 3.27.54c1.99 0 3.3-.19 3.93-.57.63-.38.94-1.17.94-2.38 0-1.74-.79-2.61-2.37-2.61-3.68 0-6.09-.31-7.25-.93s-1.74-1.91-1.74-3.87c0-1.86.46-3.09 1.37-3.71s2.74-.92 5.47-.92c4.38 0 6.57 1.32 6.57 3.96v.6zM191.53 111.33h2.42l.02.9c0 3.54-2.32 5.31-6.95 5.31-2.97 0-4.94-.56-5.89-1.68-.96-1.12-1.44-3.42-1.44-6.92 0-3.27.49-5.49 1.46-6.66s2.83-1.75 5.56-1.75c2.69 0 4.52.39 5.5 1.18.98.79 1.47 2.27 1.47 4.45h-2.42v-.43c0-1.28-.32-2.13-.95-2.56-.63-.43-1.9-.64-3.79-.64-1.82 0-2.99.4-3.51 1.21-.52.81-.78 2.62-.78 5.43 0 2.74.3 4.49.89 5.24.59.75 1.98 1.12 4.16 1.12 1.84 0 3.01-.24 3.51-.73.49-.5.74-1.65.74-3.47zM211.71 100.76v16.53h-2.42l.17-2.16-.05-.05c-.84 1.64-2.64 2.46-5.39 2.46-3.86 0-5.79-1.92-5.79-5.77v-10.99h2.42v10.99c0 1.5.25 2.5.74 3.01s1.47.76 2.92.76c1.9 0 3.21-.38 3.92-1.13.71-.75 1.06-2.14 1.06-4.16v-9.47h2.42zM219.49 93.69v23.6h-2.42v-23.6h2.42zM224.63 100.76h2.42l-.12 2.09.07.05c.84-1.59 2.65-2.39 5.43-2.39 2.45 0 4.14.62 5.06 1.87.92 1.24 1.38 3.54 1.38 6.88 0 3.1-.47 5.25-1.4 6.46-.93 1.2-2.59 1.81-4.98 1.81-2.72 0-4.52-.73-5.39-2.2h-.05v9.04h-2.42v-23.61zm7.12 1.77c-1.94 0-3.2.42-3.79 1.25-.59.83-.88 2.63-.88 5.38 0 2.55.32 4.24.95 5.09.63.85 1.91 1.27 3.82 1.27 1.82 0 3.02-.41 3.6-1.23.58-.82.87-2.51.87-5.07 0-2.81-.28-4.63-.85-5.46-.55-.82-1.8-1.23-3.72-1.23zM252.34 100.76v2h-6.36v10.11c0 1.76.78 2.64 2.35 2.64 1.56 0 2.33-.79 2.33-2.37l.02-.81.03-.92h2.25l.02 1.23c0 3.25-1.54 4.88-4.63 4.88-3.19 0-4.79-1.35-4.79-4.06v-10.7h-2.28v-2h2.28v-3.98h2.42v3.98h6.36zM258.41 93.69v2.71h-2.42v-2.71h2.42zm0 7.07v16.53h-2.42v-16.53h2.42zM263.53 100.76h2.33l-.07 2.25.07.05c.74-1.69 2.57-2.54 5.5-2.54 2.36 0 3.96.42 4.8 1.24.84.83 1.25 2.42 1.25 4.77v10.75h-2.42V106.12c0-1.42-.27-2.37-.81-2.86-.54-.49-1.58-.74-3.13-.74-3.4 0-5.1 1.61-5.1 4.82v9.94h-2.42v-16.52zM296.5 100.76v17.6c0 2.4-.52 4.05-1.56 4.94s-2.94 1.35-5.7 1.35c-2.47 0-4.15-.38-5.05-1.14-.9-.76-1.35-2.18-1.35-4.27h2.33c0 1.42.26 2.34.79 2.77.52.43 1.67.64 3.45.64 1.84 0 3.08-.28 3.72-.83.63-.55.95-1.64.95-3.25v-3.32l-.05-.02c-.62 1.53-2.42 2.3-5.39 2.3-2.44 0-4.13-.6-5.05-1.81-.92-1.2-1.38-3.4-1.38-6.59 0-3.31.47-5.57 1.41-6.79.94-1.21 2.68-1.82 5.23-1.82 2.71 0 4.48.83 5.31 2.49l.05-.02-.12-2.23h2.41zm-7.21 1.77c-1.9 0-3.13.4-3.7 1.2-.56.8-.85 2.56-.85 5.26 0 2.73.28 4.5.85 5.32.56.81 1.8 1.22 3.7 1.22 1.92 0 3.19-.45 3.8-1.34.61-.89.92-2.75.92-5.58 0-2.49-.31-4.13-.92-4.91-.61-.78-1.87-1.17-3.8-1.17zM320.12 100.76v2h-6.36v10.11c0 1.76.78 2.64 2.35 2.64 1.56 0 2.33-.79 2.33-2.37l.02-.81.04-.92h2.25l.02 1.23c0 3.25-1.54 4.88-4.63 4.88-3.19 0-4.79-1.35-4.79-4.06v-10.7h-2.28v-2h2.28v-3.98h2.42v3.98h6.35zM326.19 93.69v9.11l.05.03c.61-1.54 2.32-2.32 5.12-2.32 4.15 0 6.22 1.84 6.22 5.53v11.23h-2.42V106.24c0-2.49-1.27-3.73-3.82-3.73-2.05 0-3.42.37-4.11 1.1-.69.73-1.04 2.19-1.04 4.37v9.3h-2.42v-23.6h2.42zM349.68 100.52c3.05 0 5.04.53 5.95 1.59.91 1.06 1.37 3.37 1.37 6.92s-.46 5.85-1.37 6.91c-.91 1.06-2.89 1.59-5.95 1.59-3.04 0-5.02-.53-5.93-1.59-.91-1.06-1.37-3.36-1.37-6.91s.46-5.85 1.37-6.92c.92-1.06 2.89-1.59 5.93-1.59zm0 2.01c-2.14 0-3.47.35-3.98 1.05s-.77 2.52-.77 5.45.26 4.76.77 5.45 1.84 1.04 3.98 1.04c2.16 0 3.49-.35 4-1.04s.77-2.52.77-5.45-.26-4.76-.77-5.45-1.84-1.05-4-1.05zM375.13 100.76v16.53h-2.42l.17-2.16-.05-.05c-.84 1.64-2.64 2.46-5.39 2.46-3.86 0-5.79-1.92-5.79-5.77v-10.99h2.42v10.99c0 1.5.25 2.5.74 3.01.5.51 1.47.76 2.92.76 1.9 0 3.21-.38 3.92-1.13.71-.75 1.06-2.14 1.06-4.16v-9.47h2.42zM394.33 100.76v17.6c0 2.4-.52 4.05-1.56 4.94s-2.94 1.35-5.7 1.35c-2.47 0-4.15-.38-5.05-1.14-.9-.76-1.35-2.18-1.35-4.27H383c0 1.42.26 2.34.79 2.77.52.43 1.67.64 3.45.64 1.84 0 3.08-.28 3.72-.83.63-.55.95-1.64.95-3.25v-3.32l-.05-.02c-.62 1.53-2.42 2.3-5.39 2.3-2.44 0-4.13-.6-5.05-1.81s-1.38-3.4-1.38-6.59c0-3.31.47-5.57 1.41-6.79.94-1.21 2.68-1.82 5.23-1.82 2.71 0 4.48.83 5.31 2.49l.05-.02-.12-2.23h2.41zm-7.21 1.77c-1.9 0-3.13.4-3.7 1.2-.57.8-.85 2.56-.85 5.26 0 2.73.28 4.5.85 5.32.56.81 1.8 1.22 3.7 1.22 1.92 0 3.19-.45 3.8-1.34.61-.89.92-2.75.92-5.58 0-2.49-.31-4.13-.92-4.91-.61-.78-1.88-1.17-3.8-1.17zM401.87 93.69v9.11l.05.03c.61-1.54 2.32-2.32 5.12-2.32 4.15 0 6.22 1.84 6.22 5.53v11.23h-2.42V106.24c0-2.49-1.27-3.73-3.82-3.73-2.05 0-3.42.37-4.11 1.1-.69.73-1.04 2.19-1.04 4.37v9.3h-2.42v-23.6h2.42zM427.3 100.76v2h-6.36v10.11c0 1.76.78 2.64 2.35 2.64 1.56 0 2.33-.79 2.33-2.37l.02-.81.04-.92h2.25l.02 1.23c0 3.25-1.54 4.88-4.63 4.88-3.19 0-4.79-1.35-4.79-4.06v-10.7h-2.28v-2h2.28v-3.98h2.42v3.98h6.35zM443.76 105.09h-2.42c0-1.15-.23-1.87-.7-2.14s-1.67-.42-3.6-.42c-1.8 0-2.94.15-3.42.44-.48.29-.73 1-.73 2.12 0 1.69.81 2.58 2.44 2.66l1.95.1 2.47.12c3 .15 4.49 1.72 4.49 4.7 0 1.86-.5 3.13-1.49 3.82s-2.81 1.04-5.45 1.04c-2.71 0-4.57-.33-5.59-.99-1.02-.66-1.53-1.86-1.53-3.61l.02-.9h2.51l.02.78c0 1.08.28 1.81.83 2.17.55.36 1.64.54 3.27.54 1.99 0 3.3-.19 3.93-.57.63-.38.94-1.17.94-2.38 0-1.74-.79-2.61-2.37-2.61-3.68 0-6.09-.31-7.25-.93s-1.74-1.91-1.74-3.87c0-1.86.46-3.09 1.37-3.71s2.74-.92 5.47-.92c4.38 0 6.57 1.32 6.57 3.96v.6zM451.26 114.11v3.18h-2.66v-3.18h2.66zM459.06 114.11v3.18h-2.66v-3.18h2.66zM466.86 114.11v3.18h-2.66v-3.18h2.66z"/></g></svg>